<svg width="14" height="14" viewBox="0 0 14 14" fill="none" xmlns="http://www.w3.org/2000/svg">
<path d="M5.91262 10.1265C6.82578 10.1263 7.71264 9.82062 8.43196 9.25808L10.6936 11.5197L11.421 10.7922L9.15942 8.53062C9.72225 7.81122 10.0281 6.92417 10.0284 6.01076C10.0284 3.74144 8.18193 1.89502 5.91262 1.89502C3.6433 1.89502 1.79688 3.74144 1.79688 6.01076C1.79688 8.28008 3.6433 10.1265 5.91262 10.1265ZM5.91262 2.92395C7.61499 2.92395 8.99942 4.30839 8.99942 6.01076C8.99942 7.71313 7.61499 9.09757 5.91262 9.09757C4.21024 9.09757 2.82581 7.71313 2.82581 6.01076C2.82581 4.30839 4.21024 2.92395 5.91262 2.92395Z" fill="white"/>
</svg>
